<svg id="Layer_1" data-name="Layer 1" xmlns="http://www.w3.org/2000/svg" viewBox="0 0 200 200"><defs><style>.cls-1,.cls-2,.cls-3,.cls-4,.cls-5,.cls-6{fill:none;stroke-width:0.86px;}.cls-1,.cls-2,.cls-3,.cls-4{stroke:#000;}.cls-1,.cls-2,.cls-5{stroke-linecap:round;}.cls-1,.cls-4,.cls-5,.cls-6{stroke-linejoin:round;}.cls-2,.cls-3{stroke-miterlimit:10;}.cls-5,.cls-6{stroke:#fff;}.cls-6{stroke-linecap:square;}</style></defs><path d="M88.07,176.55c2.09.25,4.08,1.41,3.59,4.09H75.47C76,178,74,176.8,71.88,176.55a20,20,0,0,1-3.12-.66l0-.13c0-.19,0-1.13,0-2.67H77.7v0C78.49,173.27,83.71,176,88.07,176.55Z"/><path d="M75.47,180.64l-23.08.1c0-.31,0-3.13-.06-7.65h9.18v0c.62.13,3.83,1.79,7.26,2.79a20,20,0,0,0,3.12.66C74,176.8,76,178,75.47,180.64Z"/><path d="M62.3,91c3.38.32,6-1.74,7.42-3.1l.06.06c3,.17,5.83.88,7,2.69l.08,0c2.47-2.81,8.06-3.67,10.64-1.41l.16,0c.23-.76.67-2.29,1.21-4.13H89c1,7.57,1.76,14.49,1.82,17.71L51.58,103c.09-1.83.56-7.62,1-14.11l.05-.13c.5.17,1,.33,1.5.48A51.69,51.69,0,0,0,62.3,91Z"/><path d="M53.52,70.87a61.6,61.6,0,0,0-3.91,4.91c-.87,1.47.74,3.26,3.31,5l0-.06C53.24,76.3,53.44,72.78,53.52,70.87ZM56.87,83v.16S54.05,84.72,54.18,89l-.08.26c-.49-.15-1-.31-1.5-.48C46.47,86.69,39.53,82.84,38.53,76c-.39-2.72,1.11-4.88,2.3-7.32,1.49-3.08,10.13-14.29,12.24-16,2.39-2,10.56-3.16,10.56-3.16a3.48,3.48,0,0,1,1.3-2l0,0c1-.45,6.8-.62,10.11-.25a1.53,1.53,0,0,1,.55.17A2.83,2.83,0,0,1,77,49.5l17-3.24C90.67,39.81,88.33,36,84,28.49l0-.08h0a4.61,4.61,0,0,1,3.86-2.8h0c1.9,2.07,18.57,20.38,16.56,23.26-2.4,3.46-19,10.91-19,10.91.43,2.72,1,6.36,1.69,10.8v.07c-3.62,0-7.36,1.2-8.47,3.8h-.1C76.7,68.78,62.34,69,61.63,71l0,0c-.2.54-.26,6.16-.22,10.92h-.07a3,3,0,0,0-2.63,1.95C58.12,83.6,57.49,83.3,56.87,83Z"/><rect class="cls-1" x="52.35" y="180.73" width="23.08" height="1.9" transform="translate(127.77 363.35) rotate(-180)"/><rect class="cls-1" x="75.46" y="180.73" width="16.16" height="1.9"/><polyline class="cls-2" points="88.33 176.56 88.33 158.17 122.69 158.17 122.69 169.08"/><polyline class="cls-2" points="122.69 178.51 122.69 182.63 88.33 182.63"/><path class="cls-2" d="M153.22,164a24.42,24.42,0,0,0-13.7-6"/><path class="cls-2" d="M153.54,175.89a18.18,18.18,0,0,1,1.21,6.54h6.78A24.33,24.33,0,0,0,158.14,170"/><path class="cls-2" d="M139.48,164.83a17.15,17.15,0,0,1,10.26,5.11"/><line class="cls-2" x1="142.7" y1="158.82" x2="141.35" y2="165.04"/><line class="cls-2" x1="148.36" y1="160.8" x2="145.59" y2="166.77"/><line class="cls-2" x1="152.84" y1="163.72" x2="148.81" y2="169.06"/><line class="cls-2" x1="154.54" y1="174.86" x2="159.81" y2="173.43"/><line class="cls-2" x1="154.52" y1="179.15" x2="161.08" y2="178.61"/><path class="cls-2" d="M115.67,171a24.53,24.53,0,0,0,41.73-25.78l-5.77,3.56a17.75,17.75,0,1,1-30.19,18.66Z"/><line class="cls-2" x1="159.72" y1="150.61" x2="153.53" y2="152.6"/><line class="cls-2" x1="160.85" y1="157.05" x2="154.43" y2="157.3"/><line class="cls-2" x1="160.54" y1="163.03" x2="154" y2="161.49"/><line class="cls-2" x1="158.68" y1="168.59" x2="152.57" y2="165.92"/><line class="cls-2" x1="154.91" y1="174.39" x2="150.07" y2="169.79"/><line class="cls-2" x1="149.84" y1="178.66" x2="146.49" y2="172.98"/><line class="cls-2" x1="144.1" y1="181.19" x2="141.98" y2="175.19"/><line class="cls-2" x1="138.24" y1="182.48" x2="137.47" y2="175.94"/><line class="cls-2" x1="132.9" y1="182.35" x2="133.52" y2="175.69"/><line class="cls-2" x1="127.37" y1="180.86" x2="129.7" y2="174.56"/><line class="cls-2" x1="126.36" y1="172.84" x2="121.87" y2="177.76"/><line class="cls-2" x1="123.36" y1="170.1" x2="118.06" y2="174.02"/><path class="cls-2" d="M107.12,131.34a36.39,36.39,0,0,0-22,14"/><path class="cls-2" d="M102.29,143.55a26.74,26.74,0,0,1,4.92-2"/><path class="cls-2" d="M89.54,158.18a26.08,26.08,0,0,1,9-12.25"/><line class="cls-2" x1="85.81" y1="176.11" x2="88.31" y2="175.3"/><line class="cls-2" x1="79.14" y1="168.44" x2="87.83" y2="168.07"/><line class="cls-2" x1="81.49" y1="160.22" x2="88.29" y2="161.86"/><line class="cls-2" x1="83.56" y1="152.2" x2="90.58" y2="155.34"/><line class="cls-2" x1="87.16" y1="142.84" x2="94.28" y2="149.62"/><line class="cls-2" x1="94.62" y1="136.5" x2="98.93" y2="143.82"/><line class="cls-2" x1="103.11" y1="132.77" x2="106.23" y2="141.63"/><path class="cls-2" d="M96.36,166.46l-3,3"/><path class="cls-2" d="M93.32,166.46l3,3"/><path d="M122,96a5.68,5.68,0,1,0,5.68,5.67A5.67,5.67,0,0,0,122,96Zm3.13,8.79a.43.43,0,0,1-.62,0c-.58-.59-1.54-1.55-2.51-2.51l-2.51,2.51a.39.39,0,0,1-.3.13.44.44,0,0,1-.31-.74c.25-.24,1.35-1.35,2.51-2.51l-2.5-2.5a.43.43,0,0,1,.59-.63c.09.08,1.26,1.26,2.52,2.52l2.52-2.52a.44.44,0,0,1,.61,0,.43.43,0,0,1,0,.61l-2.51,2.5,2.52,2.51A.45.45,0,0,1,125.11,104.78Z"/><path class="cls-2" d="M111.52,166.46l-3,3"/><path class="cls-2" d="M108.47,166.46l3,3"/><polyline class="cls-2" points="107.3 158.16 107.3 131.61 139.48 131.61 139.48 175.42"/><path class="cls-2" d="M156.09,145.93c1.21-.48,3.28-4.08,1.57-7.17-1.85-3.36-4.92-3.19-6.18-2.56,1,2.32,3.51,7.69,4.53,9.75"/><path class="cls-2" d="M148,138.22c-1.21.49-3.28,4.08-1.57,7.17,1.85,3.36,4.92,3.19,6.18,2.57-1-2.32-3.51-7.7-4.53-9.75"/><path class="cls-2" d="M92.41,174.21c.92,0,.92,6.17,1.84,6.17s.92-6.17,1.85-6.17.92,6.17,1.84,6.17.92-6.17,1.84-6.17.92,6.17,1.84,6.17.93-6.17,1.85-6.17.92,6.17,1.85,6.17.92-6.17,1.84-6.17.93,6.17,1.85,6.17.93-6.17,1.85-6.17.93,6.17,1.85,6.17"/><line class="cls-2" x1="113.23" y1="158.1" x2="118.75" y2="147.53"/><circle class="cls-2" cx="119.36" cy="145.24" r="2.24"/><line class="cls-2" x1="94.59" y1="158.1" x2="100.11" y2="147.53"/><circle class="cls-2" cx="100.72" cy="145.24" r="2.24"/><polyline class="cls-2" points="125.97 171.98 125.97 143.38 139.37 143.38"/><path class="cls-2" d="M119.52,131.61s-13-16.17-13.26-16.4c-.41-.44-5.52,2.61-4.06,8.75s5.2,7.6,5.2,7.6"/><path class="cls-2" d="M117.42,128.82a1.76,1.76,0,0,1,2.17,2.76"/><path class="cls-2" d="M115.26,126.07a1.76,1.76,0,0,1,2.17,2.76"/><path class="cls-2" d="M113.1,123.33a1.76,1.76,0,0,1,2.17,2.76"/><path class="cls-2" d="M110.94,120.58a1.76,1.76,0,0,1,2.17,2.76"/><path class="cls-2" d="M108.77,117.84A1.76,1.76,0,0,1,111,120.6"/><path class="cls-2" d="M106.61,115.09a1.76,1.76,0,0,1,2.18,2.76"/><path class="cls-2" d="M137,129.39c-.64-1.57-4.67-8.4-1.51-9.43,2.06-.68,7.43,6.41,5.72,7.46-1.33.82-4.58-7.27-3.57-8.87,1.78-2.81,7,3.9,7.22,5.59.29,1.86-1,1-1.64-.07-1.4-2.25-2.77-6.2-.7-8.42"/><path class="cls-2" d="M99.79,129.82c-1.28.13-7.12,1.57-7.19-.95,0-1.64,6.27-4,6.67-2.54.31,1.15-6.28,1.75-7.22.67-1.66-1.9,4.34-4.21,5.63-4s.47.93-.41,1.17c-1.94.53-5.11.67-6.28-1.31"/><path class="cls-1" d="M125.54,111.52H113.39a2.22,2.22,0,0,1-2.34-2.09V94.1A2.23,2.23,0,0,1,113.39,92h17.19a2.23,2.23,0,0,1,2.34,2.09v15.33a2.22,2.22,0,0,1-2.34,2.09h-2.33"/><path class="cls-1" d="M128.32,110.29s-.64,4.62-1.77,5.5-.89-6.39-.89-6.39"/><path d="M75.88,28.76a.41.41,0,0,1,.41.42.41.41,0,0,1-.42.41.42.42,0,1,1,0-.83Z"/><path d="M70.27,28.58a.42.42,0,0,1,.41.43.41.41,0,0,1-.42.41.42.42,0,0,1-.41-.43A.41.41,0,0,1,70.27,28.58Z"/><path class="cls-3" d="M68.52,148.86c.09,10.66.22,19.86.27,24.23,0,1.54,0,2.48,0,2.67"/><path class="cls-2" d="M58.57,106.49c.13,4.32-2.87,6.91-6.57,7.94a14.63,14.63,0,0,1-3.11.5"/><path class="cls-1" d="M74.1,111.54a179.11,179.11,0,0,1-5.62,37.31c-2.11,8.5-4.57,16.63-6.93,24.13l0,.1v0c.62.13,3.83,1.79,7.26,2.79a20,20,0,0,0,3.12.66c2.1.25,4.08,1.41,3.59,4.09l-23.08.1c0-.31,0-3.13-.06-7.65-.13-12.45-.42-37.75-.33-58.66,0-3.92,0-7.68.09-11.18"/><path class="cls-1" d="M90.15,103.42c-.63,27.59-6.67,51.3-12.45,69.66v0c.8.17,6,2.94,10.38,3.45,2.09.25,4.08,1.41,3.59,4.09H75.28"/><polyline class="cls-3" points="78.08 173.09 77.7 173.09 68.94 173.09"/><polyline class="cls-3" points="61.52 173.09 61.51 173.09 52.38 173.09"/><path class="cls-2" d="M79.87,27.41c.88,3.46-4,11.6-5.43,12.15a2.55,2.55,0,0,1-.54.15c-2.06.37-4.66-1.46-5.54-3.27"/><path class="cls-2" d="M65.66,25.55c.07-.49.14-1,.23-1.59a22.36,22.36,0,0,1,.53-2.61A7.92,7.92,0,0,1,68,18.16c2.91-3.25,6.09-.83,8.44,2.52a26.47,26.47,0,0,1,1.77,2.95"/><path class="cls-3" d="M64.94,47.35c0-5.92-.31-11.51.18-17.42"/><path class="cls-3" d="M73.87,39.47l0,.24a27.38,27.38,0,0,0,1.74,7.63"/><path class="cls-2" d="M66.48,26.6a5,5,0,0,0-.86-1c-2.34-2-3.89,2.44-2.93,3.71a2.24,2.24,0,0,0,2.41.54,3.37,3.37,0,0,0,.54-.22"/><path class="cls-3" d="M66.1,23.88l-.21.08c-1.3.42-7.92,2.25-8,0,0-1.38,4.13-2.15,8.5-2.58,4.56-.46,9.35-.55,9.88-.6"/><path class="cls-2" d="M65.17,27.4a2.39,2.39,0,0,1-1.56.63"/><path class="cls-1" d="M52.55,88.91c-.41,6.49-.88,12.28-1,14.11L90.83,103C90.77,99.73,90,92.81,89,85.24"/><path class="cls-1" d="M53.52,70.87c-.08,1.91-.28,5.43-.55,9.82"/><path class="cls-4" d="M59.1,84l-.35-.16c-.63-.28-1.26-.58-1.88-.88a38.35,38.35,0,0,1-3.95-2.25c-2.57-1.71-4.18-3.5-3.31-5a61.6,61.6,0,0,1,3.91-4.91,76.22,76.22,0,0,1,8-8.22"/><path class="cls-2" d="M83.73,21.63c-.07-.12-.24-.4-.47-.74-.59-.85-1.52-2.12-1.7-2.37-.63-.88-1.36-.78-2.29-.37-.61.27-2.69.88-2.48,1.86.29,1.31,2.67,0,3.13.07s.91,1.15,1.26,1.73"/><path class="cls-2" d="M82.08,22.1a8.67,8.67,0,0,0-.91-.23c-1.57-.28-2.25.23-2.55.86-.16.32-.3.62-.43.91a5.29,5.29,0,0,0-.65,2,.82.82,0,0,0,1.37.7"/><path class="cls-2" d="M87,70.58c-.65-4.44-1.26-8.08-1.69-10.8,0,0,16.63-7.45,19-10.91,2-2.88-14.66-21.19-16.56-23.26l-.17-.19s-2.93-5.33-2.43-6.93c.61-2-1.09-2-1.69.13a4.61,4.61,0,0,0-.22,2.26"/><path class="cls-2" d="M56.86,83.16S54.05,84.72,54.18,89"/><path class="cls-1" d="M62.31,91h0a51.69,51.69,0,0,1-8.2-1.78c-.49-.15-1-.31-1.5-.48C46.47,86.69,39.53,82.84,38.53,76c-.39-2.72,1.11-4.88,2.3-7.32,1.49-3.08,10.13-14.29,12.24-16,2.39-2,10.56-3.16,10.56-3.16a3.48,3.48,0,0,1,1.3-2l0,0c1-.45,6.8-.62,10.11-.25a1.53,1.53,0,0,1,.55.17A2.83,2.83,0,0,1,77,49.5l17-3.24C90.67,39.81,88.33,36,84,28.49l0-.08c-.23-.44-1.41-2.67-1.46-2.69s-1.44,0-1.44,0l-.32.89a1,1,0,0,1-1,.71c-.41,0-.78-.22-.78-.53a1.73,1.73,0,0,1,0-.37A4.2,4.2,0,0,1,80,24.14c.53-.41,1.49-.26,2.28-.19"/><path class="cls-2" d="M87.79,25.61a4.61,4.61,0,0,0-3.86,2.8"/><path class="cls-1" d="M71.64,36.29a1.94,1.94,0,0,1,2.21-.07"/><path class="cls-2" d="M71.23,26.39a1.65,1.65,0,0,0-2.44.2"/><path class="cls-2" d="M76.7,26.36a1.63,1.63,0,0,0-2.43.2"/><path class="cls-2" d="M74.21,26.69c-.51,1.22,0,3.14.21,4.41.11.87.27,2.54-1.21,2"/><path class="cls-1" d="M78.49,74.57a.61.61,0,0,1,.05-.12c1.11-2.6,4.85-3.78,8.47-3.8a12.66,12.66,0,0,1,5.85,1.22"/><path class="cls-1" d="M61.63,71c.71-2,15.07-2.19,16.81,3.47L76.81,90.31"/><path class="cls-1" d="M93,71.94c-.46.84-2.67,8.26-4.15,13.3-.54,1.84-1,3.37-1.21,4.13a.14.14,0,0,1,0,.07"/><path class="cls-1" d="M87.49,89.33c-2.58-2.26-8.17-1.4-10.64,1.41"/><path class="cls-1" d="M61.51,85.64h0c0-.68,0-1.44,0-2.24,0-.47,0-1,0-1.46,0-4.76,0-10.38.22-10.92"/><path class="cls-1" d="M76.77,90.69c-1.16-1.81-4-2.52-7-2.69"/><path class="cls-4" d="M67.82,84.34c.82-.88-.09-2.27-1.19-1.37-1.57,1.29-3.63,2.67-5.12,2.66l-.37,0-.22,0"/><path class="cls-1" d="M65,88.94a24.67,24.67,0,0,0,4.69-3.59l.11-.13c.37-.49.44-2-.76-1.76a3.81,3.81,0,0,0-1.23.89,15.39,15.39,0,0,1-4.26,2.81"/><path class="cls-4" d="M62.23,91h.07c3.38.32,6-1.74,7.42-3.1.49-.48.82-.88,1-1,.61-.74.13-1.89-1-1.53"/><path class="cls-4" d="M61.18,85.81a1.43,1.43,0,0,1,0-.22,2.76,2.76,0,0,1,.33-2.2l0,0"/><path class="cls-4" d="M58.62,84.18c0-.07.07-.18.13-.3a3,3,0,0,1,2.63-1.95"/><path class="cls-5" d="M59.1,84l-.35-.16c-.63-.28-1.26-.58-1.88-.88a38.35,38.35,0,0,1-3.95-2.25c-2.57-1.71-4.18-3.5-3.31-5a61.6,61.6,0,0,1,3.91-4.91,76.22,76.22,0,0,1,8-8.22"/><path class="cls-6" d="M67.55,174.65c1.14.56,3.16,1.8,4.33,1.9,2.1.18,3.51,1.21,3.55,4.09"/></svg>